<svg xmlns="http://www.w3.org/2000/svg" viewBox="0 0 128 128" role="img" aria-labelledby="title desc">
  <title id="title">Dream Fruit Dust</title>
  <desc id="desc">Pink dust cloud with sparkles representing dream fruit dust.</desc>
  <rect width="128" height="128" rx="20" fill="#140b1d"/>
  <rect x="12" y="12" width="104" height="104" rx="16" fill="#20122d" stroke="#f9a8d4" stroke-opacity="0.3"/>
  <circle cx="50" cy="70" r="24" fill="#f9a8d4" fill-opacity="0.8"/>
  <circle cx="72" cy="66" r="18" fill="#fbcfe8" fill-opacity="0.85"/>
  <circle cx="84" cy="80" r="12" fill="#f472b6" fill-opacity="0.8"/>
  <circle cx="40" cy="82" r="10" fill="#fbcfe8" fill-opacity="0.7"/>
  <g fill="#fde7f3">
    <path d="M30 34l3 7 7 3-7 3-3 7-3-7-7-3 7-3z"/>
    <path d="M90 30l2 5 5 2-5 2-2 5-2-5-5-2 5-2z"/>
    <path d="M99 50l1.5 3.5 3.5 1.5-3.5 1.5-1.5 3.5-1.5-3.5-3.5-1.5 3.5-1.5z"/>
  </g>
</svg>
